<svg width="211" height="41" viewBox="0 0 211 41" fill="none" xmlns="http://www.w3.org/2000/svg">
<g filter="url(#filter0_d_521_1053)">
<path d="M6.65581 30L15.6198 3.72H23.9718L33.1878 30H27.9318L20.1198 7.212L21.9558 8.004H17.4558L19.3278 7.212L11.7678 30H6.65581ZM12.9198 23.016L14.5398 18.696H25.1958L26.7798 23.016H12.9198ZM44.5143 30.648C43.1463 30.648 41.8863 30.396 40.7343 29.892C39.5823 29.388 38.5863 28.68 37.7463 27.768C36.9063 26.856 36.2583 25.8 35.8023 24.6C35.3463 23.376 35.1183 22.056 35.1183 20.64V19.884C35.1183 18.492 35.3343 17.184 35.7663 15.96C36.2223 14.736 36.8463 13.668 37.6383 12.756C38.4543 11.844 39.4263 11.136 40.5543 10.632C41.7063 10.104 42.9783 9.84 44.3703 9.84C45.9063 9.84 47.2503 10.176 48.4023 10.848C49.5783 11.496 50.5143 12.48 51.2103 13.8C51.9063 15.12 52.2903 16.776 52.3623 18.768L50.8863 17.04V3.72H55.8903V30H51.9303V21.684H52.7943C52.7223 23.676 52.3143 25.344 51.5703 26.688C50.8263 28.008 49.8423 29.004 48.6183 29.676C47.4183 30.324 46.0503 30.648 44.5143 30.648ZM45.6303 26.436C46.6143 26.436 47.5143 26.22 48.3303 25.788C49.1463 25.332 49.7943 24.684 50.2743 23.844C50.7783 22.98 51.0303 21.972 51.0303 20.82V19.38C51.0303 18.228 50.7783 17.268 50.2743 16.5C49.7703 15.708 49.1103 15.108 48.2943 14.7C47.4783 14.268 46.5903 14.052 45.6303 14.052C44.5503 14.052 43.5903 14.316 42.7503 14.844C41.9343 15.348 41.2863 16.068 40.8063 17.004C40.3503 17.94 40.1223 19.032 40.1223 20.28C40.1223 21.528 40.3623 22.62 40.8423 23.556C41.3223 24.468 41.9703 25.176 42.7863 25.68C43.6263 26.184 44.5743 26.436 45.6303 26.436ZM62.5222 30V10.452H67.5262V30H62.5222ZM59.7862 14.196V10.452H67.5262V14.196H59.7862ZM64.3582 8.112C63.3742 8.112 62.6422 7.86 62.1622 7.356C61.7062 6.828 61.4782 6.18 61.4782 5.412C61.4782 4.596 61.7062 3.936 62.1622 3.432C62.6422 2.928 63.3742 2.676 64.3582 2.676C65.3422 2.676 66.0622 2.928 66.5182 3.432C66.9742 3.936 67.2022 4.596 67.2022 5.412C67.2022 6.18 66.9742 6.828 66.5182 7.356C66.0622 7.86 65.3422 8.112 64.3582 8.112ZM73.5452 30V3.72H78.5492V30H73.5452ZM71.0972 7.464V3.72H78.5492V7.464H71.0972ZM101.392 30.684C99.0635 30.684 97.0955 30.312 95.4875 29.568C93.9035 28.824 92.6915 27.804 91.8515 26.508C91.0115 25.188 90.5915 23.7 90.5915 22.044H95.5955C95.5955 22.74 95.7875 23.424 96.1715 24.096C96.5555 24.744 97.1675 25.272 98.0075 25.68C98.8715 26.088 99.9995 26.292 101.392 26.292C102.64 26.292 103.684 26.112 104.524 25.752C105.364 25.392 105.988 24.924 106.396 24.348C106.804 23.748 107.008 23.076 107.008 22.332C107.008 21.396 106.612 20.652 105.82 20.1C105.028 19.524 103.804 19.164 102.148 19.02L99.8435 18.84C97.3235 18.624 95.3075 17.844 93.7955 16.5C92.3075 15.132 91.5635 13.332 91.5635 11.1C91.5635 9.42 91.9595 7.98 92.7515 6.78C93.5435 5.556 94.6475 4.62 96.0635 3.972C97.5035 3.3 99.1835 2.964 101.104 2.964C103.096 2.964 104.812 3.312 106.252 4.008C107.692 4.704 108.808 5.688 109.6 6.96C110.392 8.208 110.788 9.684 110.788 11.388H105.784C105.784 10.668 105.604 10.008 105.244 9.408C104.908 8.784 104.392 8.292 103.696 7.932C103.024 7.548 102.16 7.356 101.104 7.356C100.096 7.356 99.2555 7.524 98.5835 7.86C97.9115 8.196 97.4075 8.652 97.0715 9.228C96.7355 9.804 96.5675 10.428 96.5675 11.1C96.5675 11.916 96.8675 12.636 97.4675 13.26C98.0675 13.86 99.0155 14.208 100.312 14.304L102.616 14.52C104.488 14.664 106.132 15.06 107.548 15.708C108.964 16.356 110.056 17.232 110.824 18.336C111.616 19.44 112.012 20.772 112.012 22.332C112.012 23.988 111.58 25.452 110.716 26.724C109.852 27.972 108.616 28.944 107.008 29.64C105.424 30.336 103.552 30.684 101.392 30.684ZM128.133 30V24.204H127.305V17.76C127.305 16.632 127.029 15.792 126.477 15.24C125.925 14.688 125.073 14.412 123.921 14.412C123.321 14.412 122.601 14.424 121.761 14.448C120.921 14.472 120.069 14.508 119.205 14.556C118.365 14.58 117.609 14.616 116.937 14.664V10.416C117.489 10.368 118.113 10.32 118.809 10.272C119.505 10.224 120.213 10.2 120.933 10.2C121.677 10.176 122.373 10.164 123.021 10.164C125.037 10.164 126.705 10.428 128.025 10.956C129.369 11.484 130.377 12.312 131.049 13.44C131.745 14.568 132.093 16.044 132.093 17.868V30H128.133ZM121.833 30.504C120.417 30.504 119.169 30.252 118.089 29.748C117.033 29.244 116.205 28.524 115.605 27.588C115.029 26.652 114.741 25.524 114.741 24.204C114.741 22.764 115.089 21.588 115.785 20.676C116.505 19.764 117.501 19.08 118.773 18.624C120.069 18.168 121.581 17.94 123.309 17.94H127.845V20.928H123.237C122.085 20.928 121.197 21.216 120.573 21.792C119.973 22.344 119.673 23.064 119.673 23.952C119.673 24.84 119.973 25.56 120.573 26.112C121.197 26.664 122.085 26.94 123.237 26.94C123.933 26.94 124.569 26.82 125.145 26.58C125.745 26.316 126.237 25.884 126.621 25.284C127.029 24.66 127.257 23.82 127.305 22.764L128.529 24.168C128.409 25.536 128.073 26.688 127.521 27.624C126.993 28.56 126.249 29.28 125.289 29.784C124.353 30.264 123.201 30.504 121.833 30.504ZM145.949 30.252C144.149 30.252 142.661 30.024 141.485 29.568C140.333 29.088 139.469 28.296 138.893 27.192C138.317 26.064 138.029 24.552 138.029 22.656L138.065 4.944H142.745L142.709 22.98C142.709 23.94 142.961 24.684 143.465 25.212C143.993 25.716 144.737 25.968 145.697 25.968H148.757V30.252H145.949ZM134.933 14.124V10.452H148.757V14.124H134.933ZM153.893 30V10.452H158.897V30H153.893ZM151.157 14.196V10.452H158.897V14.196H151.157ZM155.729 8.112C154.745 8.112 154.013 7.86 153.533 7.356C153.077 6.828 152.849 6.18 152.849 5.412C152.849 4.596 153.077 3.936 153.533 3.432C154.013 2.928 154.745 2.676 155.729 2.676C156.713 2.676 157.433 2.928 157.889 3.432C158.345 3.936 158.573 4.596 158.573 5.412C158.573 6.18 158.345 6.828 157.889 7.356C157.433 7.86 156.713 8.112 155.729 8.112ZM173.412 30.684C171.732 30.684 170.256 30.396 168.984 29.82C167.736 29.244 166.692 28.476 165.852 27.516C165.036 26.532 164.412 25.44 163.98 24.24C163.572 23.04 163.368 21.816 163.368 20.568V19.884C163.368 18.588 163.572 17.34 163.98 16.14C164.412 14.916 165.036 13.836 165.852 12.9C166.692 11.94 167.724 11.184 168.948 10.632C170.172 10.056 171.588 9.768 173.196 9.768C175.308 9.768 177.072 10.236 178.488 11.172C179.928 12.084 181.008 13.296 181.728 14.808C182.448 16.296 182.808 17.904 182.808 19.632V21.432H165.492V18.372H179.676L178.128 19.884C178.128 18.636 177.948 17.568 177.588 16.68C177.228 15.792 176.676 15.108 175.932 14.628C175.212 14.148 174.3 13.908 173.196 13.908C172.092 13.908 171.156 14.16 170.388 14.664C169.62 15.168 169.032 15.9 168.624 16.86C168.24 17.796 168.048 18.924 168.048 20.244C168.048 21.468 168.24 22.56 168.624 23.52C169.008 24.456 169.596 25.2 170.388 25.752C171.18 26.28 172.188 26.544 173.412 26.544C174.636 26.544 175.632 26.304 176.4 25.824C177.168 25.32 177.66 24.708 177.876 23.988H182.484C182.196 25.332 181.644 26.508 180.828 27.516C180.012 28.524 178.968 29.304 177.696 29.856C176.448 30.408 175.02 30.684 173.412 30.684ZM190.737 30L184.617 10.452H189.765L195.633 30H190.737ZM192.213 30V25.896H197.505V30H192.213ZM194.193 30L199.233 10.452H204.057L198.765 30H194.193Z" fill="black"/>
</g>
<defs>
<filter id="filter0_d_521_1053" x="0.655823" y="0.675781" width="209.401" height="40.0083" filterUnits="userSpaceOnUse" color-interpolation-filters="sRGB">
<feFlood flood-opacity="0" result="BackgroundImageFix"/>
<feColorMatrix in="SourceAlpha" type="matrix" values="0 0 0 0 0 0 0 0 0 0 0 0 0 0 0 0 0 0 127 0" result="hardAlpha"/>
<feOffset dy="4"/>
<feGaussianBlur stdDeviation="3"/>
<feComposite in2="hardAlpha" operator="out"/>
<feColorMatrix type="matrix" values="0 0 0 0 0 0 0 0 0 0 0 0 0 0 0 0 0 0 0.25 0"/>
<feBlend mode="normal" in2="BackgroundImageFix" result="effect1_dropShadow_521_1053"/>
<feBlend mode="normal" in="SourceGraphic" in2="effect1_dropShadow_521_1053" result="shape"/>
</filter>
</defs>
</svg>
